<?xml version="1.0" standalone="no"?>
<!DOCTYPE svg PUBLIC "-//W3C//DTD SVG 20010904//EN"
 "http://www.w3.org/TR/2001/REC-SVG-20010904/DTD/svg10.dtd">
<svg version="1.0" xmlns="http://www.w3.org/2000/svg"
 width="2464.000000pt" height="1248.000000pt" viewBox="0 0 2464.000000 1248.000000"
 preserveAspectRatio="xMidYMid meet">

<g transform="translate(0.000000,1248.000000) scale(0.100000,-0.100000)"
fill="#000000" stroke="none">
<path d="M5465 12456 c-61 -31 -117 -87 -187 -187 -29 -41 -817 -1124 -1752
-2407 -1638 -2250 -1701 -2334 -1765 -2379 -295 -209 -630 -534 -852 -828
-219 -290 -409 -628 -530 -943 -24 -62 -48 -110 -54 -108 -86 37 -140 31 -193
-22 -94 -94 -140 -423 -129 -912 8 -342 42 -575 97 -665 10 -18 21 -60 25
-105 41 -461 186 -962 402 -1394 286 -571 735 -1089 1267 -1463 430 -303 941
-522 1457 -627 611 -124 1189 -110 1784 44 1487 383 2615 1598 2890 3110 15
80 31 149 36 154 5 6 9 36 9 67 0 128 54 337 121 471 93 186 243 357 415 471
612 407 1429 191 1760 -465 68 -136 94 -224 114 -398 22 -182 33 -254 60 -383
127 -618 392 -1184 786 -1677 140 -174 432 -467 604 -604 581 -463 1236 -742
1980 -842 193 -26 661 -31 870 -9 845 86 1594 413 2230 972 759 667 1238 1629
1316 2643 4 59 14 101 31 136 29 62 58 200 73 349 6 60 15 114 19 120 4 5
1146 1573 2537 3484 1391 1910 2555 3502 2588 3538 93 101 163 125 245 83 22
-11 79 -63 127 -117 156 -173 327 -338 390 -376 89 -53 177 -75 249 -60 69 15
109 43 136 95 18 35 20 54 17 127 -8 158 -75 275 -277 483 -171 177 -622 587
-679 617 -110 59 -225 31 -322 -77 -28 -31 -216 -285 -418 -563 -936 -1292
-4628 -6358 -4632 -6359 -3 0 -13 30 -23 68 -36 138 -93 197 -183 190 -32 -3
-63 -13 -83 -27 -18 -13 -33 -22 -34 -20 -2 2 -18 42 -36 89 -55 139 -193 416
-281 560 -482 795 -1233 1399 -2099 1691 -466 157 -864 217 -1370 206 -371 -8
-659 -52 -1005 -152 -1340 -388 -2380 -1471 -2720 -2830 -21 -83 -59 -279 -82
-423 l-5 -34 -92 89 c-193 185 -370 295 -606 373 -340 113 -663 116 -1001 8
-248 -79 -498 -237 -668 -424 l-60 -64 -11 82 c-184 1293 -1016 2428 -2194
2993 -546 261 -1098 387 -1702 387 -380 1 -699 -41 -1047 -137 -68 -18 -125
-32 -127 -30 -6 7 2535 3488 2593 3552 93 101 163 125 245 83 22 -11 79 -63
127 -117 156 -173 327 -338 390 -376 194 -117 376 -71 408 103 8 45 -6 129
-34 203 -35 92 -114 200 -249 339 -171 177 -623 587 -679 618 -69 36 -152 39
-217 6z m-1060 -4681 c586 -62 1104 -248 1590 -570 526 -349 930 -810 1210
-1380 249 -505 359 -982 359 -1550 0 -287 -16 -446 -69 -710 -244 -1201 -1108
-2194 -2270 -2608 -278 -100 -510 -153 -820 -189 -138 -16 -585 -16 -720 0
-825 99 -1522 427 -2094 986 -576 564 -922 1253 -1038 2069 -25 177 -25 731 0
902 70 476 203 879 416 1260 437 780 1141 1360 1984 1634 267 87 505 135 817
164 106 11 510 5 635 -8z m10250 0 c586 -62 1104 -248 1590 -570 526 -349 930
-810 1210 -1380 185 -375 291 -737 341 -1155 24 -198 24 -591 1 -790 -160
-1340 -1032 -2446 -2297 -2914 -63 -24 -145 -51 -182 -62 -37 -10 -62 -21 -56
-25 13 -8 -208 -62 -362 -88 -221 -38 -331 -46 -610 -46 -303 1 -440 13 -701
66 -1192 239 -2198 1106 -2614 2255 -282 779 -280 1668 6 2433 102 271 212
487 374 731 143 216 252 348 444 540 294 294 585 503 947 681 143 70 160 77
149 59 -3 -6 1 -7 9 -4 9 3 13 10 10 15 -3 5 1 6 8 4 8 -3 47 8 86 24 282 117
636 198 1012 234 106 11 510 5 635 -8z"/>
</g>
</svg>
