<?xml version="1.0" standalone="no"?>
<!DOCTYPE svg PUBLIC "-//W3C//DTD SVG 20010904//EN"
 "http://www.w3.org/TR/2001/REC-SVG-20010904/DTD/svg10.dtd">
<svg version="1.0" xmlns="http://www.w3.org/2000/svg"
 width="393.000000pt" height="199.000000pt" viewBox="0 0 393.000000 199.000000"
 preserveAspectRatio="xMidYMid meet">

<g transform="translate(0.000000,199.000000) scale(0.100000,-0.100000)"
fill="#000000" stroke="none">
<path d="M753 1813 c-71 -98 -194 -269 -274 -379 -104 -145 -156 -209 -186
-228 -65 -42 -164 -154 -206 -234 -21 -39 -44 -72 -52 -72 -50 0 -41 -256 15
-426 29 -85 106 -200 178 -264 106 -96 274 -160 417 -160 160 0 324 69 440
184 105 104 162 216 186 365 12 79 38 123 92 159 79 53 209 25 258 -55 11 -18
29 -72 39 -120 34 -164 84 -258 193 -360 198 -185 484 -220 732 -90 35 18 92
64 136 108 95 94 148 196 177 340 l19 95 423 592 c259 362 430 592 440 592 9
0 26 -13 38 -30 61 -82 144 -71 101 13 -19 36 -132 147 -151 147 -10 0 -32
-21 -50 -48 -18 -27 -204 -285 -413 -575 -379 -525 -379 -526 -390 -494 -6 20
-18 33 -30 35 -13 2 -30 23 -49 65 -39 81 -176 220 -263 265 -244 128 -543 81
-739 -115 -81 -81 -145 -194 -166 -294 -13 -63 -18 -68 -39 -43 -7 8 -30 24
-51 35 -83 42 -183 34 -264 -21 l-43 -30 -11 54 c-6 30 -29 91 -51 137 -54
112 -170 229 -279 282 -116 57 -185 70 -322 65 -108 -5 -116 -4 -105 11 7 10
97 135 201 279 120 167 194 262 205 262 10 0 27 -13 39 -30 61 -82 144 -71
101 13 -18 36 -132 147 -151 147 -11 0 -65 -66 -145 -177z m26 -588 c187 -44
348 -202 405 -394 20 -70 21 -218 1 -296 -59 -226 -272 -399 -510 -412 -167
-10 -303 43 -426 166 -141 141 -194 315 -154 506 65 311 371 503 684 430z
m1635 0 c153 -40 294 -153 361 -288 111 -227 74 -468 -101 -645 -59 -59 -89
-81 -170 -119 -86 -41 -106 -46 -185 -51 -176 -10 -315 42 -435 162 -98 97
-147 197 -164 331 -28 218 79 437 271 553 31 19 120 50 184 65 46 11 185 6
239 -8z"/>
</g>
</svg>
